<svg xmlns="http://www.w3.org/2000/svg" width="311" height="147.931" viewBox="0 0 311 147.931"><defs><style>.a,.b,.c{fill:#fff;}.b,.c{font-size:37px;font-family:JosefinSans-Light, Josefin Sans;font-weight:300;}.b{letter-spacing:0.24em;}.c{letter-spacing:0.34em;}</style></defs><g transform="translate(0 0.001)"><path class="a" d="M29,4.4Q24.58.53,16.82.53H4.06V48h0l6.35-6.35V30.51h7a17.42,17.42,0,0,0,9.05-2.16,12.86,12.86,0,0,0,5.19-5.65,17.62,17.62,0,0,0,1.61-7.47C33.33,10.58,31.87,7,29,4.4Zm-2.87,15A8.28,8.28,0,0,1,23,22.9a9.79,9.79,0,0,1-5.56,1.44h-7V6.63h7.37c3.16,0,5.48.88,7,2.66A9.15,9.15,0,0,1,27,15.35a9.76,9.76,0,0,1-.91,4.04Z"/><path class="a" d="M92.09,12.21a25.24,25.24,0,0,0-8.91-8.9,23.84,23.84,0,0,0-24.24,0,25.12,25.12,0,0,0-8.84,8.9,23.34,23.34,0,0,0-3.29,12.06,24,24,0,0,0,12.1,21,24.5,24.5,0,0,0,24.3,0,24.24,24.24,0,0,0,8.91-8.82,23.42,23.42,0,0,0,3.3-12.15,23.1,23.1,0,0,0-3.33-12.09ZM86.51,33.37a17.33,17.33,0,0,1-6.39,6.55,17.1,17.1,0,0,1-8.91,2.39,17.39,17.39,0,0,1-9-2.42,18,18,0,0,1-8.85-15.55,18.31,18.31,0,0,1,2.34-9.11,17.6,17.6,0,0,1,6.41-6.66,16.94,16.94,0,0,1,8.94-2.46,17.21,17.21,0,0,1,9,2.43,17.65,17.65,0,0,1,6.44,6.62,18.744,18.744,0,0,1,.02,18.21Z"/><path class="a" d="M159.21.73l-11.7,33.78L134.28.73H128l5.07,13-8.23,21.52L112.51.73h-7.43L124,50.19l12.2-28.48,11.11,28.35L166.06.73Z"/><path class="a" d="M188.48,41.79V27.16h21.9V21.07h-21.9V6.63H213V.53H182.1V30.69L191.59,48h22.34V41.79Z"/><path class="a" d="M259.22,23.3a17.09,17.09,0,0,0,1.94-8.07,14.25,14.25,0,0,0-2.18-8,13.59,13.59,0,0,0-6-5A21.17,21.17,0,0,0,244.3.53H231.6V48H238V30.51h7a12.41,12.41,0,0,0,1.58-.07L257.8,48h.14V36.33l-4.68-7.46a12.72,12.72,0,0,0,5.96-5.57Zm-6.92-1.64c-1.5,1.78-4,2.68-7.39,2.68H238V6.63h7.36A9.35,9.35,0,0,1,250.59,8a8.19,8.19,0,0,1,3,3.38,9.83,9.83,0,0,1,.94,4.13,9.27,9.27,0,0,1-2.23,6.15Z"/><path class="a" d="M307.55,28.05a12.65,12.65,0,0,0-4.21-4.27,33.94,33.94,0,0,0-6.21-2.85,34.26,34.26,0,0,1-7.6-3.7,5.68,5.68,0,0,1-2.67-4.83,5.69,5.69,0,0,1,2.27-4.75,9.87,9.87,0,0,1,6.15-1.74,19.36,19.36,0,0,1,5.47.85A29,29,0,0,1,306.19,9l-2-7A28,28,0,0,0,294.37.27,15.66,15.66,0,0,0,284.21,3.9a11.43,11.43,0,0,0-3.92,9,10.22,10.22,0,0,0,1.91,6.33,14.08,14.08,0,0,0,4.57,4,53.461,53.461,0,0,0,6.68,2.94,26.45,26.45,0,0,1,6.74,3.65,6.37,6.37,0,0,1,2.4,5.22,6.65,6.65,0,0,1-2.87,5.84,11.48,11.48,0,0,1-6.67,2,18.35,18.35,0,0,1-6.38-1.29,22.76,22.76,0,0,1-5.85-3.12L278,43.5a28.69,28.69,0,0,0,7.16,3.57,25.9,25.9,0,0,0,8.49,1.41,18.24,18.24,0,0,0,8.25-1.76,13.18,13.18,0,0,0,5.43-4.86,12.85,12.85,0,0,0,1.9-6.86,13,13,0,0,0-1.68-6.95Z"/><text class="b" transform="translate(1 94.71)"><tspan x="0" y="0">PRODUCTION</tspan></text><text class="c" transform="translate(0 138.93)"><tspan x="0" y="0">&amp; PRINTING</tspan></text></g></svg>